<svg xmlns="http://www.w3.org/2000/svg" width="100" height="100.319" viewBox="0 0 100 100.319">
  <g id="logo1" transform="translate(0.029 0.75)">
    <ellipse id="Ellipse_25" data-name="Ellipse 25" cx="49.5" cy="50" rx="49.5" ry="50" transform="translate(-0.029 -0.431)" fill="#707070"/>
    <g id="Group_127" data-name="Group 127" transform="translate(-759.092 -17.606)">
      <path id="Path_16" data-name="Path 16" d="M7.847-55.863,3-70.159H6.346l2.94,9.612L12.47-70.2h2.677l3.184,9.653,2.94-9.612h3.265l-4.847,14.3H16.972l-3.2-9.288-3.2,9.288Z" transform="translate(771 122.196)" fill="#fff"/>
      <path id="Path_15" data-name="Path 15" d="M8.4-55.8V-70h5.536a7.538,7.538,0,0,1,5.435,2.018A6.734,6.734,0,0,1,21.48-62.9a6.727,6.727,0,0,1-2.119,5.07A7.525,7.525,0,0,1,13.936-55.8Zm3.123-2.819h2.413a4.175,4.175,0,0,0,3.1-1.186A4.2,4.2,0,0,0,18.215-62.9a4.191,4.191,0,0,0-1.186-3.082,4.164,4.164,0,0,0-3.093-1.2H11.523Z" transform="translate(770.548 137.652)" fill="#fff"/>
      <path id="Path_17" data-name="Path 17" d="M6.8-58.2V-69.066H9.882v2.19a3.411,3.411,0,0,1,3.468-2.393v3.224h-.162a3.109,3.109,0,0,0-2.444.963,4.184,4.184,0,0,0-.862,2.869V-58.2Zm8.477,0V-73h3.082v7.888l3.61-3.954h3.691l-4.137,4.279L25.8-58.2H22.273l-2.839-4.441L18.359-61.5V-58.2Z" transform="translate(809.745 124.428)" fill="#fff"/>
      <path id="Path_14" data-name="Path 14" d="M6.8-43.528V-54.4H9.882v1.541a3.981,3.981,0,0,1,3.2-1.744,3.163,3.163,0,0,1,3.062,1.724A4.548,4.548,0,0,1,19.718-54.6a3.536,3.536,0,0,1,2.707,1.024,4.179,4.179,0,0,1,.963,2.971v7.077H20.306v-6.063q0-2.21-1.8-2.21a1.724,1.724,0,0,0-1.369.568,2.422,2.422,0,0,0-.5,1.643v6.063H13.553v-6.063q0-2.21-1.8-2.21a1.724,1.724,0,0,0-1.369.568,2.422,2.422,0,0,0-.5,1.643v6.063Zm19.265,3.245V-54.4h3.082v1.561A4.018,4.018,0,0,1,32.534-54.6a4.668,4.668,0,0,1,3.488,1.521,5.724,5.724,0,0,1,1.46,4.137,5.683,5.683,0,0,1-1.45,4.106,4.673,4.673,0,0,1-3.5,1.511,4.242,4.242,0,0,1-3.387-1.622v4.664Zm3.8-6.5a2.429,2.429,0,0,0,1.876.842,2.459,2.459,0,0,0,1.886-.842,3.131,3.131,0,0,0,.771-2.2,3.074,3.074,0,0,0-.771-2.16,2.459,2.459,0,0,0-1.886-.842,2.429,2.429,0,0,0-1.876.842,3.156,3.156,0,0,0-.76,2.2A3.1,3.1,0,0,0,29.867-46.783Z" transform="translate(809.745 125.374)" fill="#fff"/>
      <path id="Path_18" data-name="Path 18" d="M2929.07-2617.034a8.939,8.939,0,0,1-9.039-8.814v-5.535h1.844v5.535a7.115,7.115,0,0,0,7.195,7.017,7.115,7.115,0,0,0,7.194-7.017v-5.535h1.844v5.535A8.939,8.939,0,0,1,2929.07-2617.034Zm-7.195-15.566h-1.844v-5.585a8.939,8.939,0,0,1,9.039-8.814,8.939,8.939,0,0,1,9.038,8.814v5.585h-1.844v-5.585a7.115,7.115,0,0,0-7.194-7.017,7.115,7.115,0,0,0-7.195,7.017v5.585Zm7.2-2.962a.923.923,0,0,1-.922-.922v-4.242a.923.923,0,0,1,.922-.922.923.923,0,0,1,.921.922v4.242A.923.923,0,0,1,2929.071-2635.562Z" transform="translate(-2123.921 2699.035)" fill="#fff"/>
      <path id="Path_19" data-name="Path 19" d="M-1575.4,3889.213v-35.99" transform="translate(2380.547 -3836.367)" fill="none" stroke="#fff" stroke-width="1.5"/>
    </g>
    <rect id="Rectangle_79" data-name="Rectangle 79" width="100" height="100" transform="translate(-0.028 -0.431)" fill="none"/>
  </g>
</svg>
