<svg id="Слой_1" xmlns="http://www.w3.org/2000/svg" viewBox="0 0 35 42"><style>.st0{fill:#ffffff}.st1{fill:none}</style><path class="st0" d="M33 10c-2.9 0-2.9 1-2.9 5v12c0 4.3-.4 8.6-3.3 11.6-2.4 2.4-6 3.4-9.6 3.4-3.3 0-6.7-.7-9.1-2.6-2.9-2.2-4.3-5.2-4.3-10.8V16c0-5-1-6-3.9-6V9h4.2c.1 0 .2.1.3.1 1.6.6 3.2.6 4.6 0 .2 0 .3-.1.4-.1h4.2v1c-3.1 0-3.9 1-3.9 6.1v13.2c0 5.6 3.8 9.3 9.3 9.3 6.1 0 9.1-4.4 9.1-12v-6.1V15c0-4 0-5-2.9-5V9h2.1c.1 0 .3 0 .4.1.9.4 1.8.4 2.7 0 .2-.1.4-.1.5-.1H33v1zM30 9h-1.6 3.2"/><path class="st0" d="M22.2 9.9h.8c.2 0 .3.1.4.2.1.1.2.5.2 1.1l.4 4.9v.3c0 .4-.1.6-.2.7-.1.1-.4.2-.8.2-.5 0-.8-.1-1-.4-.2-.2-.4-.8-.5-1.7-.3-1.7-1.8-3.4-2.7-3.3-1.5.1-1.9 6.1-1.8 11 0 4.2.2 9.7 1.9 10 .6.1 1.3-.4 1.7-1 .7-1 .2-2.1 1-2.7.4-.3.8-.3 1.2-.3.4 0 .8.1.9.2.2.2.3.5.3.9 0 1.5-.5 2.7-1.4 3.6-.9 1-2 1.4-3.4 1.4-1.3 0-2.5-.4-3.5-1.2-1-.8-1.9-2.2-2.6-4.2-.7-2-1.1-4.5-1.1-7.6 0-2.9.3-5.2.9-7 .6-1.7 1.4-3.1 2.3-4 .9-.9 2-1.4 3.3-1.4.8 0 1.4.2 2 .6.1.1.3.2.5.2.5.3.9-.1 1.2-.5z"/></svg>
